PathFileType	4	(X/Y/Z)	D:/Dropbox/2017/2017-10 SOFAMEA OpenSim seminar/OpenSim workshop LucaClement/Hands-on_Paris2017_Luca/For Participants/3_Scaling/transformed_Static_for_scaling.trc	
DataRate	CameraRate	NumFrames	NumMarkers	Units	OrigDataRate	OrigDataStartFrame	OrigNumFrames	
120.00	120.00	7	47	mm	120.00	175	697	
Frame#	Time	Sternum			Neck			RShoulder			LShoulder			Xiphoid			Thoracic			RAsis			LAsis			RPsis			LPsis			LThighSuperior			LThighInferior			LThighLateral			LKneeLateral			LKneeMedial			LShankSuperior			LShankInferior			LShankLateral			LAnkleLateral			LAnkleMedial			RThighSuperior			RThighInferior			RThighLateral			RKneeLateral			RShankSuperior			RShankInferior			RShankLateral			RAnkleLateral			RankleMedial			RHeel			RToe			RMidfootMedial			RMidfootLateral			RHindfoot			RMidfootSuperior			RToeMedial			RToeLateral			LHeel			LToe			LMidfootMedial			LMidfootLateral			LHindfoot			LMidfootSuperior			LToeMedial			LToeLateral			RKneeMedial			Sacral			
		X1	Y1	Z1	X2	Y2	Z2	X3	Y3	Z3	X4	Y4	Z4	X5	Y5	Z5	X6	Y6	Z6	X7	Y7	Z7	X8	Y8	Z8	X9	Y9	Z9	X10	Y10	Z10	X11	Y11	Z11	X12	Y12	Z12	X13	Y13	Z13	X14	Y14	Z14	X15	Y15	Z15	X16	Y16	Z16	X17	Y17	Z17	X18	Y18	Z18	X19	Y19	Z19	X20	Y20	Z20	X21	Y21	Z21	X22	Y22	Z22	X23	Y23	Z23	X24	Y24	Z24	X25	Y25	Z25	X26	Y26	Z26	X27	Y27	Z27	X28	Y28	Z28	X29	Y29	Z29	X30	Y30	Z30	X31	Y31	Z31	X32	Y32	Z32	X33	Y33	Z33	X34	Y34	Z34	X35	Y35	Z35	X36	Y36	Z36	X37	Y37	Z37	X38	Y38	Z38	X39	Y39	Z39	X40	Y40	Z40	X41	Y41	Z41	X42	Y42	Z42	X43	Y43	Z43	X44	Y44	Z44	X45	Y45	Z45	X46	Y46	Z46	X47	Y47	Z47	

175	1.450	537.25677	1458.09839	-469.65756	385.04984	1573.13953	-452.47375	436.07559	1555.58972	-300.17358	410.43723	1554.51794	-599.66364	563.78583	1301.98816	-456.87976	294.84549	1352.91687	-449.47079	491.32339	1039.20251	-321.70804	503.48322	1044.72949	-603.29077	305.60358	1068.15320	-411.46213	304.11652	1067.93420	-513.75867	444.36511	874.36469	-657.58704	469.07138	643.35522	-639.53998	544.08044	747.41888	-586.54224	473.80408	558.40344	-642.62085	466.68390	565.21228	-500.15784	465.13760	406.28461	-661.26031	429.56528	205.25781	-643.16870	487.89407	294.64316	-602.19507	410.70724	124.50700	-643.54053	439.52747	125.22430	-557.90680	427.22812	846.33063	-285.83545	442.13483	610.22955	-309.83636	530.99811	764.02539	-339.06152	434.56128	545.25745	-309.01373	421.46024	448.60629	-303.49777	414.01031	194.37505	-335.76645	480.51572	318.59927	-367.62741	404.86493	119.99369	-339.48358	436.77859	137.47771	-425.83716	331.78555	79.35687	-394.85986	646.10938	62.76066	-351.64545	552.84235	49.33899	-414.56854	540.92889	43.44976	-295.61353	486.26834	43.70928	-309.76688	514.32166	110.80087	-364.50757	597.77808	50.17363	-403.97821	588.70178	48.41919	-301.04401	341.33237	83.35977	-591.00122	648.74078	73.87049	-642.76184	555.46033	50.70521	-578.46918	541.75836	47.15297	-694.89453	487.62881	46.45826	-680.03479	523.43146	112.55573	-625.49115	597.16077	51.46357	-587.00000	586.07990	56.85789	-690.13300	477.67807	543.17670	-444.87912	304.86005	1068.04370	-462.61041 
176	1.458	537.26758	1458.07434	-469.61816	385.04758	1573.12366	-452.44870	436.07318	1555.58203	-300.16562	410.34232	1554.55823	-599.56482	563.76215	1301.99036	-456.85196	294.83649	1352.90369	-449.45050	491.27972	1039.17517	-321.67215	503.47195	1044.72937	-603.26514	305.57001	1068.14868	-411.49133	304.10522	1067.94788	-513.79047	444.37006	874.36487	-657.56396	469.14853	643.29315	-639.53790	544.08154	747.41437	-586.51447	473.80212	558.39771	-642.59485	466.69351	565.19061	-500.16510	465.13400	406.23346	-661.22772	429.55951	205.28004	-643.16376	487.86218	294.63562	-602.19653	410.68692	124.51218	-643.51526	439.51385	125.17001	-557.94061	427.19290	846.31482	-285.85608	442.10217	610.21155	-309.86469	530.98621	764.02893	-339.00049	434.53268	545.25708	-309.01917	421.45959	448.58948	-303.51239	413.99738	194.36952	-335.78021	480.49838	318.60199	-367.60410	404.87360	119.99026	-339.48718	436.77850	137.47746	-425.83737	331.70993	79.57335	-394.88254	646.10413	62.76184	-351.63092	552.45422	49.01564	-414.08466	541.02875	43.34230	-295.69769	486.27539	43.69582	-309.79745	514.93927	110.27541	-365.46222	597.76636	50.16972	-403.93289	588.82776	48.10444	-301.48492	341.33139	83.36009	-591.00140	648.73596	73.87093	-642.76556	555.46246	50.68648	-578.46332	541.79810	47.18309	-694.89960	487.55560	46.44313	-679.72778	523.43237	112.54867	-625.48364	597.17249	51.48125	-587.00751	586.06262	56.86808	-690.15155	477.65076	543.16119	-444.91544	304.83762	1068.04834	-462.64090 
177	1.467	537.23639	1458.08606	-469.58014	385.03574	1573.17432	-452.41980	436.05078	1555.55444	-300.12903	410.35211	1554.55664	-599.54382	563.74988	1301.97241	-456.86731	294.80826	1352.84326	-449.51917	491.23352	1039.17627	-321.65790	503.50320	1044.73474	-603.24719	305.56854	1068.14868	-411.49820	304.14288	1067.96057	-513.83746	444.38965	874.38733	-657.56775	469.19193	643.24780	-639.56537	544.07300	747.42664	-586.51221	473.79996	558.40112	-642.57678	466.70963	565.19867	-500.16479	465.12949	406.28317	-661.22180	429.54059	205.12375	-643.15900	487.88812	294.63278	-602.17517	410.68243	124.51362	-643.51984	439.51578	125.18483	-557.92096	427.16293	846.33942	-285.85101	442.00247	610.21088	-309.87006	530.97089	764.01788	-338.95807	434.50208	545.25812	-309.01620	421.43100	448.56104	-303.51489	413.99551	194.35577	-335.77490	480.49420	318.63284	-367.58685	404.86572	119.99666	-339.47833	436.77567	137.46797	-425.84576	331.72318	79.57746	-394.90454	646.08838	62.75892	-351.63434	552.40863	48.95537	-413.99927	541.02295	43.30210	-295.71463	486.29404	43.68507	-309.81476	515.01917	110.19358	-365.63120	597.77374	50.20892	-403.95392	588.72528	48.41121	-301.08545	341.32248	83.36778	-590.98419	648.73145	73.81070	-642.78668	555.46075	50.70539	-578.46790	541.78406	47.18309	-694.90747	487.54205	46.41176	-679.68951	523.38513	112.62727	-625.50208	597.16296	51.48639	-586.97394	586.06219	56.84575	-690.14172	477.61768	543.15399	-444.89929	304.85571	1068.05469	-462.66785 
178	1.475	537.23199	1458.05371	-469.56836	385.06381	1573.11963	-452.44421	436.04361	1555.55627	-300.12408	410.37198	1554.55750	-599.53552	563.68152	1301.93372	-456.77463	294.80603	1352.90308	-449.45490	491.22046	1039.16870	-321.62524	503.55701	1044.70422	-603.23621	305.53986	1068.14661	-411.46384	304.14536	1067.93701	-513.85321	444.41757	874.38251	-657.56293	469.21262	643.26782	-639.54297	544.06195	747.41034	-586.46075	473.80209	558.38763	-642.51917	466.63580	565.23901	-500.11853	464.34195	405.63330	-659.87708	429.59146	205.24683	-643.16992	487.89474	294.64008	-602.14929	410.72220	124.50179	-643.53613	439.51147	125.18506	-557.91187	427.12967	846.30646	-285.87561	442.05026	610.21490	-309.85846	530.95428	764.02893	-338.95151	434.50171	545.25909	-308.98334	421.40472	448.58240	-303.49329	413.99622	194.36566	-335.77902	480.48563	318.62265	-367.59091	404.88461	119.98470	-339.46735	436.69031	137.44598	-425.76868	331.72287	79.52054	-394.87180	646.11194	62.79072	-351.59036	552.80206	49.32106	-414.53241	541.01178	43.34068	-295.69186	486.27777	43.63831	-309.83475	514.36432	110.74049	-364.58844	597.78577	50.09389	-403.96759	588.71661	48.42171	-301.05017	341.40390	83.30250	-591.11414	648.73053	73.87643	-642.79865	555.46393	50.68220	-578.46527	541.76611	47.15608	-694.89288	487.51184	46.41405	-679.70294	523.40179	112.63348	-625.51654	597.17029	51.46330	-586.95184	586.07111	56.87790	-690.13708	477.61340	543.14465	-444.85712	304.84259	1068.04175	-462.65851 
179	1.483	537.23743	1458.05713	-469.54160	385.06708	1573.12585	-452.44366	436.01227	1555.56787	-300.09445	410.39020	1554.53479	-599.60321	563.66382	1301.92566	-456.72946	294.80295	1352.90588	-449.44681	491.17700	1039.16418	-321.59045	503.52789	1044.73962	-603.22803	305.53497	1068.15479	-411.47934	304.09613	1067.92212	-513.79761	444.42871	874.37555	-657.55011	469.20926	643.22308	-639.50983	544.09900	747.43732	-586.45032	473.81537	558.37665	-642.49536	466.58072	565.26526	-500.09909	464.24683	405.54095	-659.68353	429.51962	205.27129	-643.15149	487.89508	294.64105	-602.14923	410.69223	124.50795	-643.53314	439.51746	125.20374	-557.90582	427.10303	846.33264	-285.84570	442.01532	610.20844	-309.84326	530.92523	764.03741	-338.93637	434.46964	545.23767	-308.98572	421.38016	448.57101	-303.48709	413.97769	194.35907	-335.76196	480.48520	318.61505	-367.57578	404.88242	119.97505	-339.46725	436.75372	137.46613	-425.81516	331.77499	79.35241	-394.86560	646.07367	62.77357	-351.61304	552.83740	49.35796	-414.58539	541.01904	43.29998	-295.71088	486.29688	43.70021	-309.81641	514.95215	110.24614	-365.46997	597.77509	50.10465	-404.00522	588.70978	48.43571	-301.04135	341.41208	83.29663	-591.13501	648.73077	73.86885	-642.75940	555.45575	50.69283	-578.46143	541.74481	47.17374	-694.87091	487.49036	46.43211	-679.70544	523.41272	112.65665	-625.51929	597.14429	51.47249	-586.99756	586.06329	56.76431	-689.99896	477.61047	543.14294	-444.88361	304.81555	1068.03845	-462.63849 
180	1.492	537.22748	1458.04529	-469.50171	385.03156	1573.12732	-452.40610	435.97354	1555.57056	-300.07959	410.40054	1554.52039	-599.54761	563.65234	1301.93518	-456.69910	294.80377	1352.90503	-449.44882	491.13821	1039.16394	-321.58038	503.54434	1044.70557	-603.21454	305.51303	1068.15808	-411.50504	304.10556	1067.90637	-513.83002	444.46967	874.35400	-657.53070	469.13037	643.24097	-639.46246	544.10889	747.42816	-586.44745	473.83981	558.36627	-642.49658	466.58368	565.22235	-500.08191	464.29733	405.55988	-659.74420	429.57764	205.20100	-643.19818	487.90079	294.65265	-602.12860	410.69220	124.50612	-643.52502	439.53378	125.20322	-557.88910	427.05087	846.31042	-285.84650	441.99963	610.20526	-309.85403	530.91974	764.00360	-338.95358	434.45288	545.24249	-308.96863	421.31131	448.51096	-303.52310	413.99420	194.35124	-335.78421	480.45691	318.62189	-367.53668	404.88217	119.97485	-339.46756	436.78357	137.47951	-425.84158	331.72803	79.51236	-394.87247	646.08136	62.77421	-351.62704	552.81866	49.35403	-414.55515	541.01447	43.35027	-295.69003	486.29437	43.68757	-309.81372	514.99182	110.24603	-365.54684	597.77734	50.19500	-403.96191	588.72144	48.42730	-301.06271	341.42230	83.29417	-591.13525	648.73242	73.86339	-642.75653	555.46509	50.67905	-578.46661	541.75317	47.16753	-694.85120	487.50699	46.43295	-679.69830	523.40289	112.65266	-625.52783	597.15009	51.47470	-586.99622	586.03143	56.85007	-690.09167	477.59085	543.16626	-444.83060	304.80930	1068.03223	-462.66754 
181	1.500	537.21417	1458.04041	-469.48428	385.03122	1573.13232	-452.40054	435.94559	1555.57495	-300.08350	410.41190	1554.55042	-599.49567	563.61377	1301.95972	-456.73334	294.79889	1352.89014	-449.47519	491.14270	1039.17151	-321.55939	503.60797	1044.71033	-603.21411	305.51196	1068.17261	-411.49695	304.11072	1067.89771	-513.82684	444.54742	874.38397	-657.54480	469.32559	643.20306	-639.56091	544.18628	747.41528	-586.45734	473.86014	558.37128	-642.49402	466.59665	565.25403	-500.10355	464.34457	405.56140	-659.76770	429.63391	205.24196	-643.16974	487.92108	294.64810	-602.12622	410.68665	124.51169	-643.51434	439.51212	125.19274	-557.91541	427.00482	846.31427	-285.83096	441.95709	610.19818	-309.87082	530.87598	764.00458	-338.93573	434.42584	545.25031	-308.96786	421.31128	448.56769	-303.53098	413.96112	194.36128	-335.76117	480.45966	318.64035	-367.55026	404.86060	119.99955	-339.45746	436.78366	137.47998	-425.84216	331.79041	79.34245	-394.85440	646.07043	62.77625	-351.61481	552.81488	49.34258	-414.56100	540.95013	43.42494	-295.63159	486.27924	43.69849	-309.80441	514.38074	110.77164	-364.61490	597.77454	50.21173	-403.95514	588.82660	48.16243	-301.69302	341.42175	83.29385	-591.13391	648.73218	73.86829	-642.76105	555.46106	50.70433	-578.46912	541.74487	47.17399	-694.86981	487.61218	46.48238	-680.03448	523.42627	112.57483	-625.47064	597.15594	51.46234	-586.98169	586.02771	56.85630	-690.12927	477.59384	543.14923	-444.81824	304.81134	1068.03516	-462.66190 
